<?xml version="1.0" encoding="UTF-8" standalone="no"?>
<svg
   width="16"
   height="16"
   viewBox="0 0 16 16"
   fill="none"
   version="1.1"
   id="svg4"
   sodipodi:docname="add-database-dark.svg"
   inkscape:version="1.1.1 (3bf5ae0d25, 2021-09-20)"
   xmlns:inkscape="http://www.inkscape.org/namespaces/inkscape"
   xmlns:sodipodi="http://sodipodi.sourceforge.net/DTD/sodipodi-0.dtd"
   xmlns="http://www.w3.org/2000/svg"
   xmlns:svg="http://www.w3.org/2000/svg"
   xmlns:rdf="http://www.w3.org/1999/02/22-rdf-syntax-ns#"
   xmlns:cc="http://creativecommons.org/ns#"
   xmlns:dc="http://purl.org/dc/elements/1.1/">
  <metadata
     id="metadata10">
    <rdf:RDF>
      <cc:Work
         rdf:about="">
        <dc:format>image/svg+xml</dc:format>
        <dc:type
           rdf:resource="http://purl.org/dc/dcmitype/StillImage" />
      </cc:Work>
    </rdf:RDF>
  </metadata>
  <defs
     id="defs8" />
  <sodipodi:namedview
     pagecolor="#ffffff"
     bordercolor="#666666"
     borderopacity="1"
     objecttolerance="10"
     gridtolerance="10"
     guidetolerance="10"
     inkscape:pageopacity="0"
     inkscape:pageshadow="2"
     inkscape:window-width="1920"
     inkscape:window-height="1001"
     id="namedview6"
     showgrid="true"
     inkscape:zoom="41.7193"
     inkscape:cx="7.0830527"
     inkscape:cy="7.9219929"
     inkscape:window-x="-9"
     inkscape:window-y="-9"
     inkscape:window-maximized="1"
     inkscape:current-layer="svg4"
     inkscape:pagecheckerboard="0"
     inkscape:snap-bbox="true"
     inkscape:snap-global="false">
    <inkscape:grid
       type="xygrid"
       id="grid2081" />
  </sodipodi:namedview>
  <g
     id="g8006"
     transform="matrix(0.84560385,0,0,1,3.3247409,0)"
     style="stroke-width:1.08747">
    <g
       id="g2808"
       style="fill:#8c91ed;fill-opacity:1;stroke-width:1.08747">
      <rect
         style="fill:#8c91ed;fill-opacity:1;stroke:none;stroke-width:1.08747;stroke-miterlimit:4;stroke-dasharray:none;stroke-opacity:1;stop-color:#000000"
         id="rect2443"
         width="11.745164"
         height="9.1084938"
         x="2.5168207"
         y="4.0029435" />
      <ellipse
         style="mix-blend-mode:normal;fill:#8c91ed;fill-opacity:1;stroke:none;stroke-width:1.08747;stroke-miterlimit:4;stroke-dasharray:none;stroke-opacity:1;stop-color:#000000"
         id="ellipse2785"
         cx="8.5033646"
         cy="12.109967"
         rx="6"
         ry="2.1999578" />
      <ellipse
         style="fill:#8c91ed;fill-opacity:1;stroke:#c5c5c5;stroke-width:1.08747;stroke-miterlimit:4;stroke-dasharray:none;stroke-opacity:1;stop-color:#000000"
         id="path2185"
         cx="8.5033646"
         cy="3.7445345"
         rx="6"
         ry="2.1999578" />
    </g>
    <rect
       style="fill:#c5c5c5;fill-opacity:1;stroke:none;stroke-width:2.73323;stop-color:#000000"
       id="rect997"
       width="0.99621511"
       height="8.2607241"
       x="2"
       y="3.9789736" />
    <path
       style="fill:none;fill-opacity:1;stroke:#c5c5c5;stroke-width:1.08746;stroke-miterlimit:4;stroke-dasharray:none;stroke-opacity:1;stop-color:#000000"
       id="ellipse2311"
       sodipodi:type="arc"
       sodipodi:cx="8.5033655"
       sodipodi:cy="12.277754"
       sodipodi:rx="6.0000005"
       sodipodi:ry="2.1999578"
       sodipodi:start="6.1521411"
       sodipodi:end="3.2492472"
       sodipodi:arc-type="arc"
       d="M 14.451922,11.990287 A 6.0000005,2.1999578 0 0 1 11.766761,14.12385 6.0000005,2.1999578 0 0 1 5.3586167,14.151329 6.0000005,2.1999578 0 0 1 2.5381,12.041376"
       sodipodi:open="true" />
    <rect
       style="fill:#c5c5c5;fill-opacity:1;stroke:none;stroke-width:2.73323;stop-color:#000000"
       id="rect2313"
       width="0.99621511"
       height="8.1648455"
       x="14.003785"
       y="3.9789739" />
    <path
       style="fill:none;fill-opacity:1;stroke:#c5c5c5;stroke-width:1.08746;stroke-miterlimit:4;stroke-dasharray:none;stroke-opacity:1;stop-color:#000000"
       id="path2417"
       sodipodi:type="arc"
       sodipodi:cx="8.5033655"
       sodipodi:cy="9.617115"
       sodipodi:rx="6.0000005"
       sodipodi:ry="2.1999578"
       sodipodi:start="6.1521411"
       sodipodi:end="3.2492472"
       sodipodi:arc-type="arc"
       d="M 14.451922,9.3296477 A 6.0000005,2.1999578 0 0 1 11.766761,11.463211 6.0000005,2.1999578 0 0 1 5.3586167,11.49069 6.0000005,2.1999578 0 0 1 2.5381,9.3807368"
       sodipodi:open="true" />
    <path
       style="fill:none;fill-opacity:1;stroke:#c5c5c5;stroke-width:1.08746;stroke-miterlimit:4;stroke-dasharray:none;stroke-opacity:1;stop-color:#000000"
       id="path2419"
       sodipodi:type="arc"
       sodipodi:cx="8.5033655"
       sodipodi:cy="6.7407484"
       sodipodi:rx="6.0000005"
       sodipodi:ry="2.1999578"
       sodipodi:start="6.1521411"
       sodipodi:end="3.2492472"
       sodipodi:arc-type="arc"
       d="M 14.451922,6.4532811 A 6.0000005,2.1999578 0 0 1 11.766761,8.5868443 6.0000005,2.1999578 0 0 1 5.3586167,8.6143238 6.0000005,2.1999578 0 0 1 2.5381,6.5043701"
       sodipodi:open="true" />
  </g>
  <g
     id="g9585"
     style="fill:#59fb5b;fill-opacity:1">
    <path
       id="path841"
       d="m 2.0029534,1.6174095e-7 h 1.9654947 c 6.6e-6,0 1.15e-5,5.88551725e-6 1.15e-5,1.332896505e-5 V 6.0163866 c 0,7.5e-6 -4.9e-6,1.34e-5 -1.15e-5,1.34e-5 H 2.0029534 c -5.9e-6,0 -1.08e-5,-5.9e-6 -1.08e-5,-1.34e-5 V 1.3490706e-5 c 0,-7.4434478e-6 4.9e-6,-1.332896505e-5 1.08e-5,-1.332896505e-5 z"
       style="vector-effect:none;fill:#59fb5b;fill-opacity:1;fill-rule:nonzero;stroke:none;stroke-width:1;stroke-linecap:round;stroke-linejoin:miter;stroke-miterlimit:4;stroke-dasharray:none;stroke-dashoffset:19.9937;stroke-opacity:1;paint-order:fill markers stroke"
       inkscape:connector-curvature="0" />
    <path
       inkscape:connector-curvature="0"
       style="vector-effect:none;fill:#59fb5b;fill-opacity:1;fill-rule:nonzero;stroke:none;stroke-width:0.999997;stroke-linecap:round;stroke-linejoin:miter;stroke-miterlimit:4;stroke-dasharray:none;stroke-dashoffset:19.9937;stroke-opacity:1;paint-order:fill markers stroke"
       d="m 5.9924302,2.0134676 v 1.9894646 c 0,6.7e-6 -5.7e-6,1.17e-5 -1.32e-5,1.17e-5 H 0.0239832 c -7.38e-6,0 -1.322e-5,-5e-6 -1.322e-5,-1.17e-5 V 2.0134676 c 0,-5.9e-6 5.84e-6,-1.08e-5 1.322e-5,-1.08e-5 H 5.992417 c 7.5e-6,0 1.32e-5,4.9e-6 1.32e-5,1.08e-5 z"
       id="path843" />
  </g>
</svg>
