<?xml version="1.0" encoding="UTF-8" standalone="no"?>
<svg
   width="16"
   height="16"
   viewBox="0 0 16 16"
   fill="none"
   version="1.1"
   id="svg4"
   sodipodi:docname="export-csv-dark.svg"
   inkscape:version="1.2 (dc2aedaf03, 2022-05-15)"
   xmlns:inkscape="http://www.inkscape.org/namespaces/inkscape"
   xmlns:sodipodi="http://sodipodi.sourceforge.net/DTD/sodipodi-0.dtd"
   xmlns="http://www.w3.org/2000/svg"
   xmlns:svg="http://www.w3.org/2000/svg"
   xmlns:rdf="http://www.w3.org/1999/02/22-rdf-syntax-ns#"
   xmlns:cc="http://creativecommons.org/ns#"
   xmlns:dc="http://purl.org/dc/elements/1.1/">
  <metadata
     id="metadata10">
    <rdf:RDF>
      <cc:Work
         rdf:about="">
        <dc:format>image/svg+xml</dc:format>
        <dc:type
           rdf:resource="http://purl.org/dc/dcmitype/StillImage" />
        <dc:title />
      </cc:Work>
    </rdf:RDF>
  </metadata>
  <defs
     id="defs8" />
  <sodipodi:namedview
     pagecolor="#ffffff"
     bordercolor="#666666"
     borderopacity="1"
     objecttolerance="10"
     gridtolerance="10"
     guidetolerance="10"
     inkscape:pageopacity="0"
     inkscape:pageshadow="2"
     inkscape:window-width="1748"
     inkscape:window-height="976"
     id="namedview6"
     showgrid="true"
     inkscape:zoom="29.5"
     inkscape:cx="12.322034"
     inkscape:cy="7.3050847"
     inkscape:window-x="0"
     inkscape:window-y="0"
     inkscape:window-maximized="0"
     inkscape:current-layer="svg4"
     inkscape:showpageshadow="2"
     inkscape:pagecheckerboard="0"
     inkscape:deskcolor="#d1d1d1">
    <inkscape:grid
       type="xygrid"
       id="grid4520" />
  </sodipodi:namedview>
  <text
     xml:space="preserve"
     style="font-size:21.3333px;line-height:1.25;font-family:Consolas;-inkscape-font-specification:Consolas;letter-spacing:0.03px;word-spacing:0px;fill:#3478ff;fill-opacity:1"
     x="1.7966102"
     y="6.7118645"
     id="text334"><tspan
       sodipodi:role="line"
       id="tspan332"
       x="1.7966102"
       y="6.7118645" /></text>
  <text
     xml:space="preserve"
     style="font-size:5.33333px;line-height:1.25;font-family:Consolas;-inkscape-font-specification:Consolas;letter-spacing:0.03px;word-spacing:0px"
     x="1.9322034"
     y="1.8644068"
     id="text958"><tspan
       sodipodi:role="line"
       id="tspan956"
       x="1.9322034"
       y="1.8644068">c</tspan></text>
  <g
     aria-label="csv"
     id="text962"
     style="font-size:9.39908px;line-height:1.25;font-family:Consolas;-inkscape-font-specification:Consolas;letter-spacing:-0.318281px;word-spacing:0px;fill:#6e9dff"
     transform="translate(0,-0.88135606)">
    <path
       d="m 4.6796031,6.5321037 q -0.3304364,0.1330924 -0.6838198,0.197344 -0.3533834,0.064252 -0.7388925,0.064252 -0.5553168,0 -0.9958987,-0.15145 Q 1.8204102,6.4907991 1.5129208,6.1924885 1.2054314,5.8941778 1.0402131,5.4535959 0.87958433,5.0130141 0.87958433,4.4347503 q 0,-0.5599061 0.17439697,-1.0142562 Q 1.2329677,2.966144 1.5542253,2.6448864 1.875483,2.3236288 2.3252437,2.1492318 q 0.45435,-0.174397 1.0096668,-0.174397 0.4543501,0 0.7618395,0.050483 0.3120788,0.045894 0.5599061,0.1193243 V 3.2323289 Q 4.3721137,3.0900577 4.0370879,3.012038 3.7066514,2.934018 3.4083408,2.934018 3.096262,2.934018 2.8484346,3.0395741 2.6006073,3.1451304 2.4307997,3.3332956 2.2609921,3.5214608 2.1692042,3.7922351 2.0820057,4.05842 2.0820057,4.3796776 q 0,0.3350258 0.096377,0.6012107 0.096377,0.2661849 0.2707743,0.4543501 0.1789864,0.1835758 0.4268137,0.2845424 0.2478273,0.096377 0.5507274,0.096377 0.1468606,0 0.3074894,-0.018358 0.1652182,-0.022947 0.325847,-0.059662 0.1652182,-0.041305 0.3212577,-0.091788 0.1606288,-0.050483 0.2983106,-0.1101454 z"
       style="font-weight:bold"
       id="path2217" />
    <path
       d="m 9.6024106,5.3388611 q 0,0.3992773 -0.1789864,0.6838198 -0.174397,0.2799531 -0.4681183,0.4589395 -0.2891318,0.174397 -0.6608728,0.2524167 -0.3671516,0.082609 -0.7526607,0.082609 -0.5140122,0 -0.9270577,-0.050483 Q 6.2016691,6.7202689 5.8345176,6.628481 V 5.6188142 q 0.4314031,0.1789863 0.8582168,0.2615955 0.4314031,0.07802 0.8123228,0.07802 0.4405819,0 0.6562835,-0.1376819 0.2202909,-0.1422712 0.2202909,-0.3671516 0,-0.105556 -0.045894,-0.1927545 Q 8.2898437,5.1736429 8.1613407,5.0956232 8.037427,5.0130141 7.8079573,4.930405 7.5784875,4.8432065 7.2067466,4.7376504 6.862542,4.6412731 6.6009465,4.5219488 6.3439404,4.3980352 6.1741328,4.232817 6.0043252,4.0675988 5.9171267,3.8518972 5.8345176,3.6316063 5.8345176,3.337885 q 0,-0.2845425 0.128503,-0.5369592 0.1285031,-0.2524167 0.3809198,-0.4405819 0.2570061,-0.1927545 0.6379258,-0.3029 0.3809198,-0.1101455 0.8903426,-0.1101455 0.4405819,0 0.7801971,0.045894 0.3396152,0.045894 0.6012107,0.1009667 V 3.0074486 Q 8.8543393,2.8789455 8.5009559,2.8284622 8.1521619,2.7733895 7.8079573,2.7733895 q -0.3442046,0 -0.5553168,0.1239136 -0.2065227,0.1239137 -0.2065227,0.3442046 0,0.1055561 0.041304,0.1881652 0.041305,0.082609 0.1606288,0.1606288 0.1239137,0.07802 0.3396152,0.1652182 0.220291,0.082609 0.5782638,0.1835758 0.4038667,0.1147349 0.6792304,0.2478273 0.2753636,0.1285031 0.4405819,0.2937213 0.1698076,0.1652182 0.2432379,0.3763303 0.07343,0.2111122 0.073431,0.4818865 z"
       style="font-weight:bold"
       id="path2219" />
    <path
       d="m 13.212651,6.7110901 h -1.28962 l -1.849526,-4.662825 h 1.248316 l 0.968362,2.6434913 0.289132,0.8536274 0.284542,-0.8169122 0.977541,-2.6802065 h 1.202422 z"
       style="font-weight:bold"
       id="path2221" />
  </g>
  <path
     style="color:#000000;fill:#6e9dff;stroke-linecap:round"
     d="m 8.0683594,7.8476562 a 1,1 0 0 0 -1,1.0000001 v 5.9316407 a 1,1 0 0 0 1,1 1,1 0 0 0 1,-1 V 8.8476563 a 1,1 0 0 0 -1,-1.0000001 z"
     id="path2205" />
  <path
     style="color:#000000;fill:#6e9dff;stroke-linecap:round;-inkscape-stroke:none"
     d="M 12.525391,10.947266 8.0605469,13.708984 3.5332031,10.974609 A 1,1 0 0 0 2.1601563,11.314453 1,1 0 0 0 2.5,12.685547 l 5.5742188,3.367187 5.5039062,-3.40625 a 1,1 0 0 0 0.322266,-1.376953 1,1 0 0 0 -1.375,-0.322265 z"
     id="path2207" />
</svg>
