<?xml version="1.0" encoding="UTF-8" standalone="no"?>
<svg
   width="16"
   height="16"
   viewBox="0 0 16 16"
   fill="none"
   version="1.1"
   id="svg4"
   sodipodi:docname="settings.svg"
   inkscape:version="1.1.1 (3bf5ae0d25, 2021-09-20)"
   xmlns:inkscape="http://www.inkscape.org/namespaces/inkscape"
   xmlns:sodipodi="http://sodipodi.sourceforge.net/DTD/sodipodi-0.dtd"
   xmlns="http://www.w3.org/2000/svg"
   xmlns:svg="http://www.w3.org/2000/svg"
   xmlns:rdf="http://www.w3.org/1999/02/22-rdf-syntax-ns#"
   xmlns:cc="http://creativecommons.org/ns#"
   xmlns:dc="http://purl.org/dc/elements/1.1/">
  <metadata
     id="metadata10">
    <rdf:RDF>
      <cc:Work
         rdf:about="">
        <dc:format>image/svg+xml</dc:format>
        <dc:type
           rdf:resource="http://purl.org/dc/dcmitype/StillImage" />
      </cc:Work>
    </rdf:RDF>
  </metadata>
  <defs
     id="defs8" />
  <sodipodi:namedview
     pagecolor="#ffffff"
     bordercolor="#666666"
     borderopacity="1"
     objecttolerance="10"
     gridtolerance="10"
     guidetolerance="10"
     inkscape:pageopacity="0"
     inkscape:pageshadow="2"
     inkscape:window-width="1920"
     inkscape:window-height="1001"
     id="namedview6"
     showgrid="true"
     inkscape:zoom="29.5"
     inkscape:cx="7.0677966"
     inkscape:cy="9.4067797"
     inkscape:window-x="-9"
     inkscape:window-y="-9"
     inkscape:window-maximized="1"
     inkscape:current-layer="svg4"
     inkscape:pagecheckerboard="0"
     inkscape:snap-global="false">
    <inkscape:grid
       type="xygrid"
       id="grid817" />
  </sodipodi:namedview>
  <path
     id="path1088"
     style="fill:#c5c5c5;stroke:none;stroke-width:2.51339;stop-color:#000000;stroke-opacity:1;fill-opacity:1"
     inkscape:transform-center-y="2.1195359"
     d="M 7.9960935,1.640625 A 6.3595963,6.3595963 0 0 0 6.7949216,1.7695312 L 6.4746091,3.78125 A 4.4951892,4.4951892 0 0 0 5.4960935,4.2714844 L 3.5390623,3.4863281 A 6.3595963,6.3595963 0 0 0 1.9999997,5.9257812 L 3.5800779,7.2050781 A 4.4951892,4.4951892 0 0 0 3.4999997,8 4.4951892,4.4951892 0 0 0 3.5214841,8.296875 L 1.8535154,9.6074219 a 6.3595963,6.3595963 0 0 0 1.3339843,2.5527341 l 1.9082032,-0.732422 a 4.4951892,4.4951892 0 0 0 0.9199218,0.59961 L 6.316406,14.125 a 6.3595963,6.3595963 0 0 0 1.6796875,0.234375 6.3595963,6.3595963 0 0 0 1.201172,-0.128906 L 9.517578,12.21875 a 4.4951892,4.4951892 0 0 0 0.978516,-0.490234 l 1.957031,0.785156 a 6.3595963,6.3595963 0 0 0 1.539063,-2.439453 L 12.41211,8.7949219 A 4.4951892,4.4951892 0 0 0 12.492188,8 4.4951892,4.4951892 0 0 0 12.480469,7.6953125 L 14.146485,6.3867188 A 6.3595963,6.3595963 0 0 0 12.804688,3.8398438 L 10.900391,4.5703125 A 4.4951892,4.4951892 0 0 0 9.9746091,3.9648438 L 9.6757811,1.8671875 A 6.3595963,6.3595963 0 0 0 7.9960935,1.640625 Z m 0,3.7617188 A 2.596884,2.596884 0 0 1 10.59375,8 2.596884,2.596884 0 0 1 7.9960935,10.597656 2.596884,2.596884 0 0 1 5.3984373,8 2.596884,2.596884 0 0 1 7.9960935,5.4023438 Z" />
</svg>
